:SAMPLES-PER-SECOND 30
:FULLY-SPECIFIED
:DEGREES
107
root  -33.1211 40.0946 -5.50988 -1.57823 -41.8287 -0.939743
RightUpLeg  11.562 -8.63273 -4.26422
RightLeg  10.1558 0.000284775 3.42606
RightFoot  -17.3371 -0.228778 -2.15572
RightToes  -1.74624e-010 0 -3.6325e-017
Spine  2.8951 2.83534 10.3071
Spine1  9.78627 5.40623 -8.55765
HEad  -10.0983 -0.857003 -5.34786
LeftShoulder1  8.92161 -12.5772 -48.4296
LeftArm  -6.37404 31.5525 -26.9463
LeftForeArm  28.1452 -6.2033 -5.93558
LeftHand  -0.244104 0.0205437 5.32207
RightShoulder  5.98318 9.68437 39.268
RightArm  3.75151 10.9764 30.0992
RightForeArm  -1.59925 38.6517 9.06001
RightHand  -0.71092 -0.147103 -15.7474
LeftUpLeg  -22.3524 3.67001 1.4875
LeftLeg  2.4745 6.05768 -3.9963
LeftFoot  1.44571 0.160123 -1.50381
LeftToes  -2.54691e-011 4.12133e-011 -4.68171e-012
108
root  -34.219 39.72 -4.16573 -1.72865 -42.54 -0.883484
RightUpLeg  14.418 -9.15873 -5.34563
RightLeg  10.6444 1.75777 3.43402
RightFoot  -19.2112 -0.212647 -1.19115
RightToes  -1.74624e-010 0 -3.6325e-017
Spine  2.73331 2.94034 9.85545
Spine1  9.71834 5.54088 -8.75169
HEad  -9.95253 -0.151563 -5.04131
LeftShoulder1  8.77802 -12.4141 -48.1349
LeftArm  -6.92446 33.0222 -27.5305
LeftForeArm  27.9004 -5.42075 -5.68242
LeftHand  -0.244104 0.0205437 5.32207
RightShoulder  6.08941 9.77823 39.724
RightArm  4.7431 10.4949 30.218
RightForeArm  -1.16922 37.6153 8.71191
RightHand  -0.678645 -0.273033 -15.4001
LeftUpLeg  -22.0527 2.45385 2.64093
LeftLeg  -3.20823 8.77926 -5.5072
LeftFoot  1.30243 0.170322 -1.59449
LeftToes  -2.54691e-011 4.12133e-011 -4.68171e-012
109
root  -35.3094 39.3219 -2.71761 -1.91315 -42.9773 -0.729431
RightUpLeg  16.8119 -9.91253 -6.60067
RightLeg  12.2451 3.46634 2.99158
RightFoot  -20.4148 -0.139141 -0.0302835
RightToes  -1.74624e-010 0 -3.6325e-017
Spine  2.37175 2.91861 9.54513
Spine1  9.93645 5.65341 -9.14369
HEad  -9.90313 0.327805 -4.59991
LeftShoulder1  8.65987 -12.272 -47.9118
LeftArm  -7.34229 33.9758 -27.8919
LeftForeArm  27.6323 -5.36879 -5.53056
LeftHand  -0.244104 0.0205437 5.32207
RightShoulder  6.21577 9.86339 40.3433
RightArm  5.61771 9.39553 30.5512
RightForeArm  -1.57168 35.3472 8.06022
RightHand  -0.710332 0.00771389 -15.2988
LeftUpLeg  -23.0646 3.1638 2.25954
LeftLeg  -0.664139 12.2705 -5.42091
LeftFoot  0.748165 0.0372134 -0.395676
LeftToes  -2.54691e-011 4.12133e-011 -4.68171e-012
110
root  -36.4531 38.935 -1.13042 -2.7037 -43.6777 -0.0464478
RightUpLeg  19.0311 -10.1876 -8.40643
RightLeg  14.8066 5.53347 2.38097
RightFoot  -21.0296 0.114679 2.97261
RightToes  -1.74624e-010 0 -3.6325e-017
Spine  1.65893 3.19962 8.72232
Spine1  10.5457 5.97321 -9.15523
HEad  -9.84144 0.548112 -4.19958
LeftShoulder1  8.60103 -12.1371 -47.9968
LeftArm  -7.46586 34.3175 -27.8542
LeftForeArm  27.3569 -5.69402 -5.50419
LeftHand  -0.244104 0.0205437 5.32207
RightShoulder  6.37811 9.95698 41.1737
RightArm  6.74554 7.47573 30.7637
RightForeArm  -2.87219 31.8294 7.14435
RightHand  -0.82492 0.736925 -15.6831
LeftUpLeg  -23.9419 5.36425 0.367263
LeftLeg  5.74194 14.4214 -3.31055
LeftFoot  2.89022 -0.300003 2.17959
LeftToes  -2.54691e-011 4.12133e-011 -4.68171e-012
111
root  -37.6446 38.6496 0.51181 -4.7291 -44.3477 1.76511
RightUpLeg  20.7348 -8.35014 -10.5536
RightLeg  18.6955 6.36762 2.12735
RightFoot  -19.8197 0.499059 8.77876
RightToes  -1.74624e-010 0 -3.6325e-017
Spine  1.17996 3.61666 6.29474
Spine1  10.8801 6.13323 -8.26011
HEad  -9.20438 0.791343 -3.86121
LeftShoulder1  8.5576 -11.9537 -48.3231
LeftArm  -7.45286 34.1538 -27.5874
LeftForeArm  26.9959 -5.94599 -5.53118
LeftHand  -0.244104 0.0205437 5.32207
RightShoulder  6.63309 10.1325 42.3503
RightArm  8.65378 4.80068 30.9116
RightForeArm  -4.83234 26.3942 5.99439
RightHand  -0.989191 1.69819 -16.2977
LeftUpLeg  -24.2717 10.697 -4.03002
LeftLeg  12.2319 10.0038 -0.021015
LeftFoot  6.89839 -0.895514 5.31692
LeftToes  -2.54691e-011 4.12133e-011 -4.68171e-012
112
root  -38.8021 38.5658 2.10414 -7.34364 -43.9882 4.19336
RightUpLeg  20.2252 -4.97348 -12.0954
RightLeg  25.8857 4.1987 1.94906
RightFoot  -13.7369 0.191531 14.2655
RightToes  -1.74624e-010 0 -3.6325e-017
Spine  1.3982 3.55335 2.87991
Spine1  10.3053 5.6293 -6.88926
HEad  -7.97047 1.144 -3.71548
LeftShoulder1  8.51639 -11.7969 -48.5837
LeftArm  -7.49619 33.1633 -27.2883
LeftForeArm  26.7174 -5.86522 -5.53481
LeftHand  -0.244104 0.0205437 5.32207
RightShoulder  6.89764 10.2953 43.5954
RightArm  7.09454 1.89173 31.413
RightForeArm  -3.15617 18.1881 6.03172
RightHand  -1.09302 2.37165 -16.4729
LeftUpLeg  -23.9521 13.4048 -7.91489
LeftLeg  17.6484 5.5423 2.13678
LeftFoot  7.91353 -1.36973 7.82352
LeftToes  -2.54691e-011 4.12133e-011 -4.68171e-012
113
root  -39.8472 38.6381 3.58608 -9.36638 -42.8739 6.12793
RightUpLeg  15.9898 -2.53144 -12.8591
RightLeg  37.326 1.29262 0.771144
RightFoot  -1.75001 -1.22269 14.9883
RightToes  -1.74624e-010 0 -3.6325e-017
Spine  2.25664 3.0911 0.343412
Spine1  9.16096 4.84212 -6.04102
HEad  -7.0039 1.29443 -4.05676
LeftShoulder1  8.55147 -11.8155 -48.7254
LeftArm  -7.65458 30.7011 -26.9275
LeftForeArm  26.716 -5.69496 -5.51221
LeftHand  -0.244104 0.0205437 5.32207
RightShoulder  7.03352 10.3353 44.3627
RightArm  -3.81181 -0.883754 32.1769
RightForeArm  7.10559 8.1539 7.8904
RightHand  -0.982385 1.90973 -15.7142
LeftUpLeg  -22.3956 11.193 -9.24977
LeftLeg  22.1035 6.50918 3.27952
LeftFoot  4.3691 -1.20722 8.50481
LeftToes  -2.54691e-011 4.12133e-011 -4.68171e-012
